<svg xmlns="http://www.w3.org/2000/svg" width="50" height="50" fill="none" viewBox="0 0 50 50"><path fill="url(#a)" d="M14.05 4.18c-2.806-1.568-6.128-.245-7.331 2.406L25.13 25l9.39-9.39z"/><path fill="url(#b)" d="M34.52 34.39 25.132 25 6.72 43.414c1.204 2.652 4.526 3.974 7.331 2.408z"/><path fill="url(#c)" d="M43.145 29.576c1.791-1 2.687-2.788 2.688-4.576 0-1.789-.896-3.577-2.688-4.576L34.52 15.61 25.13 25l9.39 9.39z"/><path fill="url(#d)" d="M6.719 6.586a5.3 5.3 0 0 0-.469 2.172v32.478c0 .793.17 1.524.469 2.178l18.41-18.417z"/><defs><linearGradient id="a" x1="18.8562" x2="26.3511" y1="3.37915" y2="36.1875" gradientUnits="userSpaceOnUse"><stop stop-color="#35AB4A"/><stop offset="0.297" stop-color="#31A145"/><stop offset="0.798" stop-color="#288739"/><stop offset="1" stop-color="#237A33"/></linearGradient><linearGradient id="b" x1="19.9562" x2="22.0771" y1="24.8562" y2="69.7198" gradientUnits="userSpaceOnUse"><stop stop-color="#F14E5D"/><stop offset="0.499" stop-color="#EA3D4F"/><stop offset="1" stop-color="#E12138"/></linearGradient><linearGradient id="c" x1="34.3157" x2="38.0636" y1="15.5198" y2="45.4291" gradientUnits="userSpaceOnUse"><stop stop-color="#FFD844"/><stop offset="0.519" stop-color="#FFC63F"/><stop offset="1" stop-color="#FFB03A"/></linearGradient><linearGradient id="d" x1="14.4302" x2="16.2208" y1="6.1469" y2="44.5948" gradientUnits="userSpaceOnUse"><stop offset="0.003" stop-color="#0090E6"/><stop offset="1" stop-color="#0065A0"/></linearGradient></defs></svg>