<svg aria-hidden="true" style="position: absolute; width: 0; height: 0; overflow: hidden;" version="1.1" xmlns="http://www.w3.org/2000/svg" xmlns:xlink="http://www.w3.org/1999/xlink">
<defs>
<symbol id="icon-arrowsmallleft" viewBox="0 0 32 32">
<path stroke-linejoin="round" stroke-linecap="round" stroke-miterlimit="4" stroke-width="1.6" d="M9.333 16h13.333"></path>
<path stroke-linejoin="round" stroke-linecap="round" stroke-miterlimit="4" stroke-width="1.6" d="M14.667 10.667l-5.333 5.333 5.333 5.333"></path>
</symbol>
<symbol id="icon-arrowsmallright" viewBox="0 0 32 32">
<path stroke-linejoin="round" stroke-linecap="round" stroke-miterlimit="4" stroke-width="1.6" d="M22.667 16h-13.333"></path>
<path stroke-linejoin="round" stroke-linecap="round" stroke-miterlimit="4" stroke-width="1.6" d="M17.333 21.333l5.333-5.333-5.333-5.333"></path>
</symbol>
<symbol id="icon-menu" viewBox="0 0 32 32">
<path d="M4 24v-2.667h24v2.667h-24zM4 17.333v-2.667h24v2.667h-24zM4 10.667v-2.667h24v2.667h-24z"></path>
</symbol>
<symbol id="icon-mdi_calendar-multiselect-outline" viewBox="0 0 33 32">
<path d="M9.79 14.667h2.667v2.667h-2.667v-2.667zM25.79 4h-1.333v-2.667h-2.667v2.667h-10.667v-2.667h-2.667v2.667h-1.333c-1.467 0-2.667 1.2-2.667 2.667v18.667c0 1.467 1.2 2.667 2.667 2.667h18.667c1.467 0 2.667-1.2 2.667-2.667v-18.667c0-1.467-1.2-2.667-2.667-2.667zM25.79 6.667v2.667h-18.667v-2.667h18.667zM7.124 25.333v-13.333h18.667v13.333h-18.667zM15.124 20h2.667v2.667h-2.667v-2.667zM20.457 20h2.667v2.667h-2.667v-2.667zM20.457 14.667h2.667v2.667h-2.667v-2.667z"></path>
</symbol>
<symbol id="icon-mdi_flower" viewBox="0 0 33 32">
<path d="M4.457 17.333c0 3.183 1.264 6.235 3.515 8.485s5.303 3.515 8.485 3.515c0-6.667-5.373-12-12-12zM16.457 7.333c0.884 0 1.732 0.351 2.357 0.976s0.976 1.473 0.976 2.357c0 0.884-0.351 1.732-0.976 2.357s-1.473 0.976-2.357 0.976c-0.884 0-1.732-0.351-2.357-0.976s-0.976-1.473-0.976-2.357c0-0.884 0.351-1.732 0.976-2.357s1.473-0.976 2.357-0.976zM7.924 13.667c0 0.884 0.351 1.732 0.976 2.357s1.473 0.976 2.357 0.976c0.707 0 1.36-0.227 1.867-0.587v0.253c0 0.884 0.351 1.732 0.976 2.357s1.473 0.976 2.357 0.976c0.884 0 1.732-0.351 2.357-0.976s0.976-1.473 0.976-2.357v-0.253c0.507 0.36 1.16 0.587 1.867 0.587 0.884 0 1.732-0.351 2.357-0.976s0.976-1.473 0.976-2.357c0-1.333-0.787-2.467-1.907-3 1.12-0.533 1.907-1.68 1.907-3 0-0.884-0.351-1.732-0.976-2.357s-1.473-0.976-2.357-0.976c-0.707 0-1.36 0.213-1.867 0.587v-0.253c0-0.884-0.351-1.732-0.976-2.357s-1.473-0.976-2.357-0.976c-0.884 0-1.732 0.351-2.357 0.976s-0.976 1.473-0.976 2.357v0.253c-0.507-0.373-1.16-0.587-1.867-0.587-0.884 0-1.732 0.351-2.357 0.976s-0.976 1.473-0.976 2.357c0 1.32 0.787 2.467 1.907 3-1.12 0.533-1.907 1.667-1.907 3zM16.457 29.333c3.183 0 6.235-1.264 8.485-3.515s3.515-5.303 3.515-8.485c-6.667 0-12 5.333-12 12z"></path>
</symbol>
<symbol id="icon-mdi_google-gamepad" viewBox="0 0 33 32">
<path d="M11.084 21.333l-3.96 4c-0.44 0.4-1.027 0.667-1.667 0.667-0.619 0-1.212-0.246-1.65-0.683s-0.683-1.031-0.683-1.65v-0.333l1.333-9.84c0.134-1.499 0.824-2.894 1.935-3.91s2.56-1.581 4.065-1.583h12c3.147 0 5.72 2.413 6 5.493l1.333 9.84v0.333c0 0.619-0.246 1.212-0.683 1.65s-1.031 0.683-1.65 0.683c-0.64 0-1.227-0.267-1.667-0.667l-3.96-4h-10.747zM9.79 10.667v2.667h-2.667v1.333h2.667v2.667h1.333v-2.667h2.667v-1.333h-2.667v-2.667h-1.333zM22.457 10.667c-0.265 0-0.52 0.105-0.707 0.293s-0.293 0.442-0.293 0.707 0.105 0.52 0.293 0.707c0.188 0.188 0.442 0.293 0.707 0.293s0.52-0.105 0.707-0.293c0.188-0.188 0.293-0.442 0.293-0.707s-0.105-0.52-0.293-0.707c-0.188-0.188-0.442-0.293-0.707-0.293zM20.124 13c-0.265 0-0.52 0.105-0.707 0.293s-0.293 0.442-0.293 0.707c0 0.265 0.105 0.52 0.293 0.707s0.442 0.293 0.707 0.293c0.265 0 0.52-0.105 0.707-0.293s0.293-0.442 0.293-0.707c0-0.265-0.105-0.52-0.293-0.707s-0.442-0.293-0.707-0.293zM24.79 13c-0.265 0-0.52 0.105-0.707 0.293s-0.293 0.442-0.293 0.707 0.105 0.52 0.293 0.707c0.188 0.188 0.442 0.293 0.707 0.293s0.52-0.105 0.707-0.293c0.188-0.188 0.293-0.442 0.293-0.707s-0.105-0.52-0.293-0.707c-0.188-0.188-0.442-0.293-0.707-0.293zM22.457 15.333c-0.265 0-0.52 0.105-0.707 0.293s-0.293 0.442-0.293 0.707 0.105 0.52 0.293 0.707c0.188 0.188 0.442 0.293 0.707 0.293s0.52-0.105 0.707-0.293c0.188-0.188 0.293-0.442 0.293-0.707s-0.105-0.52-0.293-0.707c-0.188-0.188-0.442-0.293-0.707-0.293z"></path>
</symbol>
<symbol id="icon-mdi_magic" viewBox="0 0 33 32">
<path d="M10.457 7.467l-3.333 1.867 1.867-3.333-1.867-3.333 3.333 1.867 3.333-1.867-1.867 3.333 1.867 3.333-3.333-1.867zM26.457 20.533l3.333-1.867-1.867 3.333 1.867 3.333-3.333-1.867-3.333 1.867 1.867-3.333-1.867-3.333 3.333 1.867zM29.791 2.667l-1.867 3.333 1.867 3.333-3.333-1.867-3.333 1.867 1.867-3.333-1.867-3.333 3.333 1.867 3.333-1.867zM18.244 17.040l3.253-3.253-2.827-2.827-3.253 3.253 2.827 2.827zM19.617 9.72l3.12 3.12c0.52 0.493 0.52 1.36 0 1.88l-15.56 15.56c-0.52 0.52-1.387 0.52-1.88 0l-3.12-3.12c-0.52-0.493-0.52-1.36 0-1.88l15.56-15.56c0.52-0.52 1.387-0.52 1.88 0z"></path>
</symbol>
<symbol id="icon-mdi_magic-staff" viewBox="0 0 33 32">
<path d="M23.791 12c-0.884 0-1.732-0.351-2.357-0.976s-0.976-1.473-0.976-2.357 0.351-1.732 0.976-2.357c0.625-0.625 1.473-0.976 2.357-0.976s1.732 0.351 2.357 0.976 0.976 1.473 0.976 2.357c0 0.884-0.351 1.732-0.976 2.357s-1.473 0.976-2.357 0.976zM19.697 10.867l-16.573 16.587 1.88 1.88 16.587-16.573c-0.8-0.44-1.453-1.093-1.893-1.893zM17.791 6.667l0.84-1.827 1.827-0.84-1.827-0.84-0.84-1.827-0.827 1.827-1.84 0.84 1.84 0.84 0.827 1.827zM28.457 6.667l0.84-1.827 1.827-0.84-1.827-0.84-0.84-1.827-0.827 1.827-1.84 0.84 1.84 0.84 0.827 1.827zM28.457 12l-0.827 1.827-1.84 0.84 1.84 0.84 0.827 1.827 0.84-1.827 1.827-0.84-1.827-0.84-0.84-1.827z"></path>
</symbol>
<symbol id="icon-mdi_progress-upload" viewBox="0 0 33 32">
<path d="M17.791 2.707c6.307 0.627 11.333 5.627 11.933 11.96 0.176 1.741 0.006 3.499-0.499 5.175s-1.336 3.234-2.444 4.588c-1.109 1.354-2.473 2.476-4.016 3.301s-3.233 1.338-4.975 1.51v-2.667c4.853-0.573 8.667-4.427 9.28-9.28 0.173-1.39 0.070-2.801-0.303-4.152s-1.009-2.614-1.871-3.719c-0.862-1.105-1.933-2.028-3.153-2.719s-2.563-1.133-3.953-1.304v-2.693zM15.124 2.747v2.667c-1.907 0.267-3.707 1.040-5.2 2.24l-1.907-1.973c2.022-1.666 4.498-2.688 7.107-2.933zM6.137 7.56l1.907 1.907c-1.182 1.506-1.938 3.302-2.187 5.2h-2.667c0.267-2.613 1.267-5.080 2.947-7.107zM3.204 17.333h2.667c0.24 1.893 1 3.693 2.173 5.2l-1.893 1.907c-1.656-2.030-2.681-4.5-2.947-7.107zM9.924 24.493c1.507 1.173 3.307 1.933 5.2 2.173v2.667c-2.613-0.28-5.093-1.333-7.107-3.013l1.907-1.827zM16.457 10l-6 6h4.667v5.333h2.667v-5.333h4.667l-6-6z"></path>
</symbol>
<symbol id="icon-mdi_puzzle" viewBox="0 0 33 32">
<path d="M27.791 14.667h-2v-5.333c0-0.707-0.281-1.386-0.781-1.886s-1.178-0.781-1.886-0.781h-5.333v-2c0-0.884-0.351-1.732-0.976-2.357s-1.473-0.976-2.357-0.976c-0.884 0-1.732 0.351-2.357 0.976s-0.976 1.473-0.976 2.357v2h-5.333c-0.707 0-1.386 0.281-1.886 0.781s-0.781 1.178-0.781 1.886v5.067h2c2 0 3.6 1.6 3.6 3.6s-1.6 3.6-3.6 3.6h-2v5.067c0 0.707 0.281 1.386 0.781 1.886s1.178 0.781 1.886 0.781h5.067v-2c0-2 1.6-3.6 3.6-3.6s3.6 1.6 3.6 3.6v2h5.067c0.707 0 1.386-0.281 1.886-0.781s0.781-1.178 0.781-1.886v-5.333h2c0.884 0 1.732-0.351 2.357-0.976s0.976-1.473 0.976-2.357c0-0.884-0.351-1.732-0.976-2.357s-1.473-0.976-2.357-0.976z"></path>
</symbol>
<symbol id="icon-mdi_soundcloud" viewBox="0 0 33 32">
<path d="M15.871 11.827v10.84h11.68c2.467-0.173 3.573-1.693 3.573-3.56 0-1.973-1.493-3.56-3.493-3.56-0.507 0-0.933 0.107-1.373 0.293-0.32-3.12-2.973-5.56-6.24-5.56-1.56 0-3.040 0.587-4.147 1.547zM14.697 13.187c-0.4-0.24-0.827-0.427-1.293-0.52v10h1.853v-10.213c-0.2 0.213-0.387 0.48-0.56 0.733zM11.564 12.467v10.2h1.227v-10.16c-0.253-0.040-0.507-0.053-0.773-0.053-0.16 0-0.307 0-0.453 0.013zM9.124 13.333v9.333h1.213v-9.947c-0.44 0.147-0.853 0.36-1.213 0.613zM6.897 16.667c-0.080 0-0.16-0.080-0.253-0.12v6.12h1.227v-8.187c-0.493 0.64-0.827 1.4-0.973 2.187zM4.177 16.293v6.253c0.28 0.080 0.6 0.12 0.947 0.12h0.293v-6.48c-0.107-0.013-0.213-0.027-0.293-0.027-0.347 0-0.667 0.053-0.947 0.133zM1.79 19.413c0 1 0.453 1.88 1.16 2.48v-4.947c-0.707 0.587-1.16 1.48-1.16 2.467z"></path>
</symbol>
<symbol id="icon-mdi_wifi-off" viewBox="0 0 33 32">
<path d="M3.497 4l-1.707 1.693 1.96 1.96c-0.573 0.347-1.147 0.733-1.693 1.147l2.4 3.2c0.707-0.533 1.44-1 2.213-1.427l2.973 2.973c-0.987 0.453-1.933 1-2.787 1.653l2.4 3.2c1.040-0.773 2.213-1.373 3.467-1.773l3.4 3.373c-1.667 0.093-3.213 0.667-4.467 1.6l4.8 6.4 3.28-4.36 4.373 4.36 1.68-1.707zM16.457 4c-2.867 0-5.6 0.507-8.133 1.427l3.187 3.2c1.613-0.413 3.24-0.627 4.947-0.627 4.507 0 8.667 1.48 12 4l2.4-3.2c-4.013-3.013-8.987-4.8-14.4-4.8zM16.457 12c-0.507 0-1 0-1.493 0.067l4.253 4.267c1.627 0.373 3.147 1.093 4.44 2.067l2.4-3.2c-2.667-2.013-6-3.2-9.6-3.2z"></path>
</symbol>
</defs>
</svg>

